<?xml version="1.0" encoding="UTF-8"?>
<svg xmlns="http://www.w3.org/2000/svg" xmlns:xlink="http://www.w3.org/1999/xlink" width="400px" height="px" viewBox="0 0 400 492" version="1.1">
<g id="surface1">
<path style=" stroke:none;fill-rule:nonzero;fill:rgb(100%,100%,100%);fill-opacity:1;" d="M 387.222656 167.9375 C 384.390625 170.136719 334.089844 198.09375 334.089844 261.234375 C 334.089844 334.117188 397.914062 359.875 399.796875 360.503906 C 399.484375 362.390625 389.738281 395.6875 366.15625 430.242188 C 345.410156 460.398438 323.085938 490.871094 289.761719 490.871094 C 256.433594 490.871094 247.628906 471.082031 209.273438 471.082031 C 171.546875 471.082031 158.34375 491.5 127.847656 491.5 C 97.347656 491.5 75.96875 463.226562 51.449219 428.984375 C 23.152344 388.460938 0.203125 325.949219 0.203125 266.261719 C 0.203125 171.078125 62.136719 120.1875 123.445312 120.1875 C 155.828125 120.1875 182.863281 141.546875 203.300781 141.546875 C 222.480469 141.546875 252.660156 118.929688 289.761719 118.929688 C 303.90625 118.929688 354.210938 120.1875 387.222656 167.9375 Z M 205.816406 113.589844 C 203.300781 113.589844 200.785156 113.277344 199.214844 112.960938 C 198.898438 111.703125 198.269531 107.9375 198.269531 104.164062 C 198.269531 78.722656 211.160156 53.589844 225.308594 37.570312 C 242.914062 16.835938 272.78125 1.441406 297.304688 0.5 C 297.933594 3.328125 298.25 6.78125 298.25 10.238281 C 298.25 35.371094 287.558594 60.5 272.46875 78.722656 C 256.121094 98.824219 228.136719 113.589844 205.816406 113.589844 Z M 205.816406 113.589844 "/>
</g>
</svg>
